{"glyphs":{"0":{"x_min":14,"x_max":551,"ha":565,"o":"m 286 -22 l 286 -22 q 216 -22 168 3 q 119 27 89 67 q 59 107 43 155 q 26 203 20 252 q 14 300 14 340 l 14 340 q 14 376 20 423 q 26 470 42 519 q 57 567 87 609 q 117 650 166 676 q 214 701 284 701 l 284 701 q 352 701 400 676 q 447 651 477 611 q 506 570 523 522 q 539 473 545 425 q 551 377 551 339 l 551 339 q 551 299 545 251 q 538 202 522 154 q 505 106 476 66 q 446 26 400 2 q 353 -22 286 -22 z m 282 162 l 282 162 q 308 162 324 175 q 340 187 349 207 q 358 227 362 251 q 366 274 367 297 q 368 319 368 335 l 368 335 l 368 340 q 368 398 359 438 q 349 477 331 498 q 312 518 283 518 l 283 518 q 253 518 234 498 q 215 478 206 438 q 197 398 197 339 l 197 339 q 197 282 207 243 q 216 203 235 183 q 254 162 282 162 z"},"1":{"x_min":5,"x_max":350,"ha":379,"o":"m 259 -11 l 259 -11 q 209 -11 189 9 q 169 29 169 80 l 169 80 l 169 418 l 159 409 q 125 379 98 380 q 70 381 38 415 l 38 415 q 5 450 7 481 q 9 512 49 547 l 49 547 l 176 661 q 184 669 193 674 l 193 674 q 200 680 211 684 l 211 684 q 219 687 227 688 l 227 688 q 241 691 260 691 l 260 691 q 310 691 330 671 q 350 650 350 599 l 350 599 l 350 79 q 350 29 330 9 q 310 -11 259 -11 z"},"2":{"x_min":14,"x_max":559,"ha":566,"o":"m 466 -11 l 105 -11 q 68 -11 41 17 q 14 45 14 82 l 14 82 q 14 101 19 118 q 23 135 31 151 q 39 166 50 179 l 50 179 q 76 212 114 239 q 152 266 193 290 q 234 314 270 338 q 306 362 329 390 q 351 418 351 452 l 351 452 q 351 462 347 478 q 342 493 326 506 q 310 518 275 518 l 275 518 q 254 518 239 513 q 224 507 215 497 q 206 486 202 471 q 197 455 197 435 l 197 435 q 197 414 193 395 q 189 375 170 363 q 151 350 105 350 l 105 350 q 60 350 41 364 q 22 377 18 399 q 14 420 14 442 l 14 442 q 14 488 32 534 q 49 580 83 618 q 117 655 165 678 q 213 701 274 701 l 274 701 q 347 701 406 666 q 465 630 500 571 q 535 511 535 437 l 535 437 q 535 388 519 348 q 503 308 478 277 q 452 245 423 223 q 394 200 367 186 l 367 186 q 354 178 343 173 l 343 173 l 468 173 q 491 173 512 169 q 533 165 546 146 q 559 126 559 80 l 559 80 q 559 36 546 17 q 532 -3 511 -7 q 489 -11 466 -11 l 466 -11 z"},"3":{"x_min":14,"x_max":551,"ha":565,"o":"m 281 -21 l 281 -21 q 227 -21 179 -3 q 131 15 94 47 q 56 78 35 119 q 14 159 14 203 l 14 203 q 14 266 114 266 l 114 266 q 142 266 157 261 q 171 256 180 244 q 189 231 198 208 l 198 208 l 205 196 q 211 183 229 171 q 247 158 282 158 l 282 158 q 309 158 328 165 q 347 172 358 185 q 368 198 368 215 l 368 215 q 368 235 358 248 q 348 261 331 267 q 314 273 291 273 l 291 273 q 269 273 248 276 q 227 279 214 297 q 200 315 200 360 l 200 360 q 200 406 214 424 q 227 441 249 444 q 270 446 292 446 l 292 446 q 312 446 326 449 q 339 451 346 458 q 353 465 353 478 l 353 478 q 353 493 346 504 q 338 514 324 520 q 310 525 291 525 l 291 525 q 267 525 253 519 q 239 513 232 504 q 224 494 219 485 l 219 485 q 200 443 169 435 q 137 426 93 450 l 93 450 q 50 476 44 505 q 38 534 58 574 l 58 574 q 58 574 58 574 l 58 574 q 58 574 64 586 l 64 586 q 69 598 84 617 q 99 636 124 656 q 149 675 188 688 q 227 701 281 701 l 281 701 q 344 701 392 681 q 439 661 472 629 q 504 597 521 559 q 537 520 537 482 l 537 482 q 537 445 525 420 q 512 394 496 380 q 479 365 468 359 l 468 359 q 477 353 491 342 q 505 330 519 312 q 532 294 542 271 q 551 247 551 217 l 551 217 q 551 148 516 95 q 481 41 420 10 q 359 -21 281 -21 z"},"4":{"x_min":5,"x_max":523,"ha":551,"o":"m 430 -8 l 430 -8 q 385 -8 366 6 q 347 19 343 41 q 339 62 339 84 l 339 84 l 339 188 l 96 188 q 51 188 32 202 q 13 215 9 237 q 5 258 5 280 l 5 280 q 5 291 6 298 q 6 305 8 312 l 8 312 l 85 623 q 98 678 123 689 q 148 700 198 688 l 198 688 q 235 678 256 660 q 276 641 270 615 l 270 615 l 208 360 l 339 360 l 339 605 q 339 627 343 647 q 347 666 367 679 q 386 692 432 692 l 432 692 q 477 692 496 679 q 515 665 519 644 q 523 623 523 600 l 523 600 l 523 83 q 523 60 519 39 q 514 18 495 5 q 476 -8 430 -8 z"},"5":{"x_min":5,"x_max":479,"ha":493,"o":"m 236 -22 l 236 -22 q 189 -22 153 -11 q 117 -1 93 13 q 68 27 56 38 l 56 38 l 43 48 q 28 61 17 76 q 5 90 5 109 l 5 109 q 5 125 14 142 q 23 158 42 177 l 42 177 q 57 194 73 203 q 88 211 104 211 l 104 211 q 119 211 135 204 q 150 196 172 178 l 172 178 l 178 174 q 183 170 196 166 q 208 162 230 162 l 230 162 q 251 162 266 169 q 280 176 288 189 q 295 201 295 219 l 295 219 q 295 236 287 249 q 279 262 265 270 q 251 277 233 277 l 233 277 q 221 277 213 274 q 204 271 200 268 q 195 264 194 263 l 194 263 q 184 254 171 247 q 158 239 138 239 l 138 239 q 123 239 107 244 q 91 249 73 259 l 73 259 q 41 276 29 289 q 16 302 16 318 l 16 318 l 53 602 q 55 617 61 639 q 67 660 86 677 q 105 693 145 693 l 145 693 l 374 692 q 397 692 418 688 q 438 684 452 665 q 465 645 465 598 l 465 598 q 465 555 453 537 q 440 518 420 515 q 400 511 379 511 l 379 511 l 225 511 l 218 458 q 221 459 224 459 q 227 459 230 460 q 232 460 235 460 l 235 460 l 240 460 q 287 460 330 442 q 373 423 407 390 q 440 357 460 315 q 479 273 479 226 l 479 226 q 479 156 447 100 q 415 44 360 11 q 305 -22 236 -22 z"},"6":{"x_min":14,"x_max":507,"ha":521,"o":"m 267 -21 l 267 -21 q 188 -21 132 14 q 75 48 45 113 q 14 177 14 266 l 14 266 q 14 342 32 407 q 50 472 84 525 q 117 577 165 614 q 212 651 272 671 q 331 691 400 691 l 400 691 q 422 691 442 687 q 462 683 475 664 q 488 645 488 599 l 488 599 q 488 554 475 535 q 461 516 440 512 q 419 508 396 508 l 396 508 q 351 508 320 496 q 288 484 268 466 q 247 448 235 430 l 235 430 q 226 417 221 407 l 221 407 q 229 410 240 412 l 240 412 q 256 416 274 416 l 274 416 q 337 416 390 387 q 443 358 475 311 q 507 264 507 208 l 507 208 q 507 144 475 92 q 443 40 389 10 q 334 -21 267 -21 z m 263 150 l 263 150 q 285 150 299 156 q 313 161 320 173 q 326 185 326 203 l 326 203 q 326 218 319 229 q 312 240 299 246 q 286 252 269 252 l 269 252 q 249 252 234 246 q 218 240 210 230 q 202 219 202 205 l 202 205 q 202 186 208 174 q 214 161 228 156 q 241 150 263 150 z"},"7":{"x_min":5,"x_max":517,"ha":522,"o":"m 193 -9 l 193 -9 q 148 -9 129 1 q 110 11 106 30 q 101 48 101 71 l 101 71 q 101 123 114 171 q 126 219 147 263 q 167 307 191 346 q 214 384 236 416 q 258 447 275 470 q 291 493 296 507 l 296 507 l 96 507 q 74 507 53 512 q 32 516 19 535 q 5 554 5 599 l 5 599 q 5 644 18 663 q 31 682 51 686 q 70 690 91 690 l 91 690 l 426 690 q 472 690 491 677 q 509 663 513 642 q 517 621 517 598 l 517 598 q 517 559 500 516 q 483 472 457 427 q 431 381 401 335 q 371 288 345 242 q 319 196 302 153 q 285 109 285 69 l 285 69 q 285 47 281 29 q 276 11 257 1 q 237 -9 193 -9 z"},"8":{"x_min":14,"x_max":527,"ha":541,"o":"m 273 -22 l 273 -22 q 200 -22 142 10 q 83 41 49 96 q 14 150 14 219 l 14 219 q 14 252 25 280 q 36 307 51 327 q 66 347 79 359 l 79 359 q 83 362 86 365 l 86 365 q 89 363 91 361 l 91 361 q 89 363 86 366 l 86 366 q 92 371 94 373 l 94 373 q 95 373 95 373 l 95 373 q 94 373 85 367 l 85 367 q 80 372 74 379 l 74 379 q 59 395 47 422 q 34 449 34 485 l 34 485 q 34 547 66 597 q 98 646 153 676 q 207 705 273 705 l 273 705 q 338 705 391 676 q 444 646 476 595 q 507 544 507 481 l 507 481 q 507 457 499 436 q 491 414 480 398 q 469 381 460 371 l 460 371 q 458 369 457 367 l 457 367 q 448 373 448 373 l 448 373 q 448 373 449 373 l 449 373 q 451 371 456 366 l 456 366 q 451 360 450 359 l 450 359 q 449 359 449 359 l 449 359 q 450 358 457 365 l 457 365 q 460 362 465 358 l 465 358 q 477 346 492 326 q 506 306 517 279 q 527 251 527 219 l 527 219 q 527 162 504 117 q 481 72 444 41 q 406 10 362 -6 q 317 -22 273 -22 z m 272 153 l 272 153 q 295 153 311 161 q 327 168 336 182 q 344 196 344 215 q 344 234 336 248 q 327 261 311 268 q 294 275 270 275 l 270 275 q 247 275 231 268 q 214 261 206 248 q 197 234 197 215 q 197 196 206 182 q 215 168 232 161 q 248 153 272 153 z m 272 444 l 272 444 q 289 444 301 449 q 312 454 318 464 q 324 473 324 486 q 324 499 318 509 q 311 518 300 523 q 288 528 271 528 l 271 528 q 255 528 243 523 q 231 518 225 509 q 219 499 219 486 q 219 473 226 464 q 232 454 244 449 q 256 444 272 444 z m 457 367 l 457 367 q 457 367 458 366 l 458 366 q 458 366 457 365 l 457 365 q 456 366 456 366 l 456 366 q 456 367 457 367 z m 86 365 l 86 365 q 85 365 84 366 l 84 366 q 85 366 85 367 l 85 367 q 86 366 86 366 l 86 366 q 86 365 86 365 z"},"9":{"x_min":14,"x_max":507,"ha":521,"o":"m 117 -10 l 117 -10 q 96 -10 77 -5 q 57 -1 45 18 q 32 37 32 82 l 32 82 q 32 128 46 147 q 59 165 81 169 q 102 173 125 173 l 125 173 q 170 173 202 185 q 233 197 254 215 q 274 233 286 251 l 286 251 q 294 265 299 275 l 299 275 q 291 272 281 270 l 281 270 q 264 265 246 265 l 246 265 q 184 265 131 294 q 78 323 46 370 q 14 417 14 472 l 14 472 q 14 537 46 589 q 78 641 132 672 q 186 702 253 702 l 253 702 q 332 702 389 668 q 446 633 477 569 q 507 505 507 415 l 507 415 q 507 339 489 274 q 471 208 438 156 q 404 103 356 66 q 308 29 248 10 q 188 -10 117 -10 z m 252 429 l 252 429 q 273 429 288 435 q 303 440 311 451 q 319 462 319 476 l 319 476 q 319 496 313 508 q 306 520 293 526 q 279 531 257 531 q 235 531 221 526 q 207 520 201 509 q 194 497 194 478 l 194 478 q 194 464 202 453 q 209 441 222 435 q 235 429 252 429 z"}," ":{"x_min":0,"x_max":0,"ha":235,"o":""},"!":{"x_min":28,"x_max":220,"ha":248,"o":"m 124 236 l 124 236 q 79 236 60 248 q 41 260 37 279 q 33 297 33 317 l 33 317 l 33 612 q 33 632 37 651 q 41 670 60 683 q 79 695 125 695 l 125 695 q 171 695 190 683 q 208 670 212 651 q 216 631 216 611 l 216 611 l 216 316 q 216 296 212 278 q 208 259 189 248 q 170 236 124 236 z m 124 -10 l 124 -10 q 66 -10 47 13 q 28 35 28 87 l 28 87 q 28 109 33 131 q 37 153 57 168 q 77 182 125 182 l 125 182 q 184 182 202 160 q 220 138 220 85 l 220 85 q 220 63 216 41 q 212 19 192 5 q 172 -10 124 -10 z"},"\"":{"x_min":14,"x_max":385,"ha":399,"o":"m 301 345 l 301 345 q 284 345 271 364 q 258 382 248 412 q 238 441 232 475 q 225 509 222 540 q 219 571 219 591 l 219 591 q 219 615 223 638 q 226 661 244 676 q 261 691 303 691 l 303 691 q 344 691 361 676 q 378 660 382 637 q 385 614 385 591 l 385 591 q 385 571 382 540 q 379 509 373 475 q 366 441 356 412 q 346 382 333 364 q 319 345 301 345 z m 96 345 l 96 345 q 79 345 66 364 q 52 382 43 412 q 33 441 27 475 q 20 509 17 540 q 14 571 14 591 l 14 591 q 14 615 18 638 q 21 661 38 676 q 55 691 97 691 l 97 691 q 138 691 155 676 q 172 660 176 637 q 179 614 179 591 l 179 591 q 179 571 176 540 q 173 509 167 475 q 160 441 150 412 q 140 382 127 364 q 113 345 96 345 z"},"#":{"x_min":-1,"x_max":696,"ha":697,"o":"m 163 -6 l 163 -6 q 129 -6 111 5 q 93 16 97 38 l 97 38 l 114 147 l 63 147 q 25 147 12 164 q -1 180 7 220 l 7 220 q 13 254 25 268 q 37 282 53 285 q 69 288 85 288 l 85 288 l 137 288 l 151 372 l 100 372 q 63 372 50 388 q 36 404 44 444 l 44 444 q 50 478 62 492 q 74 506 90 509 q 106 512 122 512 l 122 512 l 174 512 l 189 600 q 193 622 196 642 q 199 662 216 676 q 232 689 276 689 l 276 689 q 312 689 332 677 q 351 664 347 639 l 347 639 l 326 512 l 446 512 l 460 600 q 464 622 468 642 q 471 662 488 676 q 504 689 548 689 l 548 689 q 584 689 603 677 q 622 665 618 641 l 618 641 l 598 512 l 634 512 q 672 512 684 496 q 696 480 690 440 l 690 440 q 685 406 673 392 q 660 378 645 375 q 629 372 613 372 l 613 372 l 574 372 l 561 288 l 597 288 q 635 288 648 272 q 661 256 653 216 l 653 216 q 647 182 635 168 q 622 153 607 150 q 592 147 576 147 l 576 147 l 537 147 l 525 73 q 522 53 516 35 q 510 17 492 6 q 474 -6 434 -6 l 434 -6 q 401 -6 383 5 q 364 16 368 38 l 368 38 l 385 147 l 266 147 l 254 73 q 251 53 245 35 q 239 17 221 6 q 203 -6 163 -6 z m 304 372 l 289 288 l 409 288 l 422 372 l 304 372 z"},"$":{"x_min":12,"x_max":428,"ha":442,"o":"m 428 226 l 428 226 q 428 189 418 160 q 408 130 390 108 q 371 85 345 70 q 318 55 285 47 l 285 47 l 285 -7 q 285 -26 282 -44 q 279 -62 266 -73 q 252 -85 220 -85 l 220 -85 q 189 -85 176 -73 q 162 -61 160 -43 q 157 -25 157 -7 l 157 -7 l 157 47 q 132 53 110 64 q 87 75 69 90 q 50 105 35 124 l 35 124 q 12 156 15 178 q 18 199 49 229 l 49 229 q 68 246 87 249 q 105 251 123 242 q 140 232 154 214 l 154 214 q 171 194 185 186 q 199 177 218 177 l 218 177 q 239 177 252 182 q 265 187 271 198 q 277 208 277 224 l 277 224 q 277 242 253 250 q 228 257 191 265 q 154 273 118 290 l 118 290 q 99 299 82 312 q 65 325 52 344 q 39 362 32 387 q 24 411 24 444 l 24 444 q 24 477 33 504 q 42 531 60 552 q 77 572 102 586 q 126 600 157 607 l 157 607 l 157 653 q 157 672 160 690 q 162 707 176 719 q 189 730 221 730 l 221 730 q 252 730 266 718 q 279 706 282 689 q 285 671 285 652 l 285 652 l 285 609 q 308 605 326 596 q 344 586 367 567 l 367 567 q 395 543 398 526 q 400 509 377 475 l 377 475 q 362 451 346 441 q 329 431 312 434 q 295 437 275 450 l 275 450 q 268 455 262 461 q 255 467 245 471 q 234 475 213 475 l 213 475 q 205 475 198 473 q 191 470 186 466 q 180 461 177 455 q 173 449 173 443 l 173 443 q 173 425 189 416 q 204 407 230 402 q 255 397 284 391 l 284 391 q 310 385 336 375 q 361 365 382 347 q 403 329 416 300 q 428 271 428 226 z"},"%":{"x_min":28,"x_max":751,"ha":779,"o":"m 194 -27 l 194 -27 q 180 -19 172 -10 q 163 -2 162 9 q 161 20 169 33 l 169 33 l 529 712 q 537 726 546 733 q 555 739 567 738 q 579 737 594 728 l 594 728 q 610 719 618 710 q 626 700 626 691 q 626 681 618 669 l 618 669 l 256 -14 q 249 -28 241 -33 q 232 -38 221 -36 q 209 -34 194 -27 z m 194 328 l 194 328 q 119 328 74 378 q 28 428 28 510 l 28 510 q 28 594 73 644 q 117 694 193 694 l 193 694 q 272 694 316 646 q 360 597 360 511 l 360 511 q 360 424 317 376 q 274 328 194 328 z m 193 458 l 193 458 q 218 458 229 471 q 240 484 240 512 l 240 512 q 240 541 230 553 q 219 564 193 564 l 193 564 q 168 564 158 553 q 147 541 147 512 l 147 512 q 147 483 158 471 q 168 458 193 458 z m 586 -11 l 586 -11 q 511 -11 465 39 q 419 89 419 171 l 419 171 q 419 256 464 306 q 509 355 585 355 l 585 355 q 664 355 708 307 q 751 259 751 172 l 751 172 q 751 84 709 37 q 666 -11 586 -11 z m 585 119 l 585 119 q 611 119 622 132 q 632 144 632 173 l 632 173 q 632 202 622 214 q 611 225 585 225 l 585 225 q 560 225 550 213 q 539 201 539 172 l 539 172 q 539 143 550 131 q 560 119 585 119 z"},"&":{"x_min":14,"x_max":684,"ha":696,"o":"m 262 -17 l 262 -17 q 181 -17 126 7 q 70 30 42 77 q 14 123 14 192 l 14 192 q 14 228 26 261 q 37 293 61 325 q 84 356 119 386 l 119 386 q 108 413 100 438 q 92 463 88 487 q 84 511 84 533 l 84 533 q 84 596 109 639 q 134 681 183 703 q 232 724 303 724 l 303 724 q 364 724 408 703 q 451 682 475 643 q 498 604 498 549 l 498 549 q 498 514 485 485 q 471 456 448 431 q 425 406 397 385 q 369 363 340 343 l 340 343 q 356 323 373 304 q 389 285 407 268 q 425 251 443 236 l 443 236 q 454 253 462 271 q 469 288 473 306 l 473 306 q 478 331 502 343 q 525 354 565 354 l 565 354 q 604 354 620 344 q 636 334 640 321 q 644 307 643 296 l 643 296 q 641 263 628 230 q 615 196 592 163 l 592 163 l 602 163 q 643 163 664 142 q 684 121 684 80 l 684 80 q 684 28 666 9 q 648 -10 601 -10 l 601 -10 q 574 -10 547 -5 q 520 -1 494 8 q 467 17 441 30 l 441 30 q 412 15 382 5 q 352 -6 322 -11 q 292 -17 262 -17 z m 261 483 l 261 483 q 281 496 295 506 q 309 516 318 524 q 326 532 330 539 q 334 545 334 551 l 334 551 q 334 566 325 574 q 315 582 298 582 q 281 582 270 578 q 259 574 254 566 q 249 557 249 544 l 249 544 q 249 535 251 525 q 252 515 255 505 q 257 494 261 483 z m 269 140 l 269 140 l 290 140 q 280 150 270 161 q 259 172 249 184 q 238 196 228 208 q 218 220 208 233 l 208 233 q 205 228 203 223 q 201 218 200 213 q 198 208 197 203 q 196 198 196 193 l 196 193 q 196 176 205 164 q 213 152 229 146 q 245 140 269 140 z"},"'":{"x_min":14,"x_max":179,"ha":193,"o":"m 96 345 l 96 345 q 79 345 66 364 q 52 382 43 412 q 33 441 27 475 q 20 509 17 540 q 14 571 14 591 l 14 591 q 14 615 18 638 q 21 661 38 676 q 55 691 97 691 l 97 691 q 138 691 155 676 q 172 660 176 637 q 179 614 179 591 l 179 591 q 179 571 176 540 q 173 509 167 475 q 160 441 150 412 q 140 382 127 364 q 113 345 96 345 z"},"(":{"x_min":19,"x_max":352,"ha":357,"o":"m 283 -175 l 283 -175 q 228 -175 185 -145 q 141 -116 110 -66 q 79 -16 59 46 q 38 107 29 173 q 19 239 19 299 l 19 299 q 19 357 28 423 q 37 489 57 552 q 77 614 108 665 q 139 716 183 747 q 226 777 284 777 l 284 777 q 301 777 317 773 q 332 769 342 755 q 352 740 352 707 l 352 707 q 352 673 343 659 q 333 644 319 641 q 304 638 288 638 l 288 638 l 283 638 q 264 638 239 603 q 214 568 196 494 q 177 420 177 301 l 177 301 q 177 230 186 169 q 194 108 209 62 q 223 16 243 -10 q 262 -36 284 -36 l 284 -36 q 301 -36 317 -39 q 332 -42 342 -56 q 352 -71 352 -106 l 352 -106 q 352 -140 342 -154 q 331 -169 315 -172 q 299 -175 283 -175 z"},")":{"x_min":5,"x_max":339,"ha":357,"o":"m 74 -175 l 74 -175 q 58 -175 42 -172 q 26 -169 16 -154 q 5 -140 5 -106 l 5 -106 q 5 -71 15 -56 q 25 -42 41 -39 q 57 -36 73 -36 l 73 -36 q 95 -36 115 -10 q 134 16 149 62 q 163 108 172 169 q 180 230 180 301 l 180 301 q 180 420 162 494 q 143 568 119 603 q 94 638 74 638 l 74 638 l 69 638 q 54 638 39 641 q 24 644 15 659 q 5 673 5 707 l 5 707 q 5 740 15 755 q 25 769 41 773 q 57 777 73 777 l 73 777 q 131 777 175 747 q 218 716 250 665 q 281 614 301 552 q 320 489 330 424 q 339 358 339 299 l 339 299 q 339 239 329 173 q 319 107 299 46 q 279 -16 248 -66 q 216 -116 173 -145 q 130 -175 74 -175 z"},"*":{"x_min":-3,"x_max":470,"ha":468,"o":"m 234 701 l 234 701 q 281 701 300 683 q 319 664 319 617 l 319 617 l 319 586 l 367 601 q 402 610 422 597 q 442 584 455 541 l 455 541 q 470 496 457 473 q 444 449 397 433 l 397 433 l 370 425 l 401 381 q 419 351 412 329 q 405 306 369 280 l 369 280 q 331 252 306 257 q 280 261 254 299 l 254 299 l 234 326 l 206 287 q 184 258 159 257 q 134 256 96 283 l 96 283 q 59 309 54 333 q 49 357 74 392 l 74 392 l 97 425 l 60 436 q 19 445 8 468 q -3 491 12 538 l 12 538 q 28 585 50 598 q 72 611 112 597 l 112 597 l 150 585 l 150 621 q 150 665 169 683 q 188 701 234 701 z"},"+":{"x_min":14,"x_max":476,"ha":490,"o":"m 245 24 l 245 24 q 204 24 187 37 q 170 49 167 68 q 163 87 163 107 l 163 107 l 163 172 l 91 172 q 73 172 55 176 q 37 179 26 197 q 14 214 14 255 l 14 255 q 14 297 27 314 q 39 331 59 335 q 78 338 98 338 l 98 338 l 163 338 l 163 404 q 163 424 167 443 q 170 461 188 473 q 205 485 246 485 q 287 485 304 473 q 321 461 325 442 q 328 423 328 403 l 328 403 l 328 338 l 394 338 q 414 338 433 335 q 452 331 464 314 q 476 296 476 254 l 476 254 q 476 213 465 196 q 453 179 436 176 q 418 172 399 172 l 399 172 l 328 172 l 328 106 q 328 86 325 67 q 321 48 304 36 q 287 24 245 24 z"},",":{"x_min":15,"x_max":208,"ha":223,"o":"m 42 -157 l 42 -157 l 36 -155 q 29 -153 23 -144 q 16 -135 16 -113 l 16 -113 q 16 -87 25 -78 q 33 -69 38 -68 l 38 -68 q 40 -66 56 -52 q 72 -39 76 -8 l 76 -8 q 63 -5 53 1 q 42 6 34 13 l 34 13 q 20 27 18 48 q 15 69 15 88 l 15 88 q 16 110 20 132 q 24 153 45 168 q 65 182 113 182 l 113 182 q 167 182 189 160 l 189 160 q 203 146 206 126 q 208 105 208 85 l 208 85 q 208 75 208 66 q 207 56 205 47 l 205 47 q 200 -10 177 -56 q 153 -102 118 -129 q 83 -157 42 -157 z"},"-":{"x_min":14,"x_max":389,"ha":403,"o":"m 312 174 l 90 174 q 75 174 57 178 q 39 181 27 199 q 14 216 14 258 l 14 258 q 14 299 27 316 q 40 332 58 336 q 76 339 91 339 l 91 339 l 312 339 q 328 339 346 336 q 364 332 377 315 q 389 298 389 257 l 389 257 q 389 216 377 199 q 365 181 348 178 q 330 174 312 174 l 312 174 z"},".":{"x_min":14,"x_max":206,"ha":220,"o":"m 110 -10 l 110 -10 q 57 -10 36 11 q 14 32 14 84 l 14 84 q 14 121 24 142 q 33 163 54 173 q 75 182 111 182 l 111 182 q 164 182 185 161 q 206 139 206 85 l 206 85 q 206 50 197 29 q 188 8 167 -1 q 146 -10 110 -10 z"},"/":{"x_min":-3,"x_max":489,"ha":489,"o":"m 60 -46 l 60 -46 q 14 -24 6 -2 q -3 19 16 60 l 16 60 l 316 687 q 330 715 345 727 q 359 739 380 737 q 400 735 429 721 l 429 721 q 462 705 476 691 q 489 676 487 658 q 485 639 471 610 l 471 610 l 172 -11 q 153 -54 130 -59 q 106 -65 60 -46 z"},":":{"x_min":14,"x_max":207,"ha":221,"o":"m 111 287 l 111 287 q 58 287 37 308 q 15 329 15 381 l 15 381 q 15 418 25 439 q 34 460 55 470 q 76 479 112 479 l 112 479 q 165 479 186 458 q 207 436 207 382 l 207 382 q 207 347 198 326 q 189 305 168 296 q 147 287 111 287 z m 110 -10 l 110 -10 q 57 -10 36 11 q 14 32 14 84 l 14 84 q 14 121 24 142 q 33 163 54 173 q 75 182 111 182 l 111 182 q 164 182 185 161 q 206 139 206 85 l 206 85 q 206 50 197 29 q 188 8 167 -1 q 146 -10 110 -10 z"},";":{"x_min":14,"x_max":206,"ha":220,"o":"m 41 -158 l 41 -158 l 35 -156 q 28 -154 22 -144 q 15 -135 15 -113 l 15 -113 q 15 -87 24 -78 q 32 -70 37 -69 l 37 -69 q 39 -67 55 -53 q 71 -39 75 -8 l 75 -8 q 62 -5 52 0 q 41 5 34 12 l 34 12 q 19 26 17 46 q 14 65 14 84 l 14 84 q 14 121 23 142 q 31 163 52 173 q 73 182 111 182 l 111 182 q 165 182 188 160 l 188 160 q 202 146 204 127 q 206 107 206 88 l 206 88 q 206 72 206 63 q 205 54 204 47 l 204 47 q 199 -10 176 -56 q 152 -103 117 -130 q 82 -158 41 -158 z m 110 286 l 110 286 q 55 286 35 309 q 14 331 14 380 l 14 380 q 14 417 22 439 q 30 460 52 470 q 73 479 111 479 l 111 479 q 168 479 187 458 q 206 436 206 381 l 206 381 q 206 359 202 337 q 198 315 178 301 q 158 286 110 286 z"},"<":{"x_min":5,"x_max":580,"ha":583,"o":"m 442 12 l 442 12 l 45 248 q 32 256 19 275 q 5 294 5 322 l 5 322 q 5 359 21 373 q 36 387 46 393 l 46 393 l 443 629 q 461 640 480 646 q 498 652 518 643 q 537 634 558 598 l 558 598 q 579 564 577 543 q 575 521 560 508 q 545 494 527 483 l 527 483 l 252 320 l 528 157 q 546 146 561 133 q 576 120 578 99 q 580 77 558 42 l 558 42 q 537 7 517 -2 q 497 -11 479 -5 q 460 1 442 12 z"},"=":{"x_min":14,"x_max":431,"ha":445,"o":"m 356 277 l 87 277 q 73 277 56 280 q 39 283 27 300 q 15 317 15 357 l 15 357 q 15 396 27 412 q 39 428 56 432 q 73 435 88 435 l 88 435 l 357 435 q 373 435 390 432 q 407 428 419 412 q 431 396 431 356 l 431 356 q 431 316 420 300 q 408 283 391 280 q 373 277 356 277 l 356 277 z m 356 80 l 87 80 q 72 80 55 83 q 38 86 26 103 q 14 120 14 160 l 14 160 q 14 199 27 216 q 39 232 56 235 q 73 238 88 238 l 88 238 l 357 238 q 372 238 389 235 q 406 231 418 215 q 430 199 430 159 l 430 159 q 430 119 419 103 q 407 86 390 83 q 373 80 356 80 l 356 80 z"},">":{"x_min":3,"x_max":578,"ha":583,"o":"m 538 248 l 141 12 q 123 1 105 -5 q 86 -11 67 -2 q 47 7 25 42 l 25 42 q 3 77 5 99 q 7 120 22 133 q 37 146 55 157 l 55 157 l 331 320 l 56 483 q 38 494 23 508 q 8 521 7 543 q 5 564 25 598 l 25 598 q 46 634 66 643 q 85 652 104 646 q 122 640 140 629 l 140 629 l 537 393 q 548 387 563 373 q 578 359 578 322 l 578 322 q 578 294 565 275 q 551 256 538 248 l 538 248 z"},"?":{"x_min":5,"x_max":462,"ha":476,"o":"m 236 234 l 236 234 q 194 234 177 246 q 159 257 156 275 q 152 293 152 312 l 152 312 l 152 319 q 152 351 163 370 q 173 389 190 401 q 206 412 225 420 q 244 427 261 435 q 277 442 288 454 q 298 465 298 485 l 298 485 q 298 514 282 527 q 266 540 230 540 l 230 540 q 214 540 203 536 q 192 532 187 527 q 181 521 178 515 l 178 515 q 168 485 156 468 q 143 451 124 448 q 105 444 73 456 l 73 456 q 39 470 24 483 q 8 496 7 514 q 5 532 14 561 l 14 561 q 15 564 22 580 q 28 595 42 617 q 56 638 81 659 q 105 680 142 694 q 178 708 230 708 l 230 708 q 296 708 349 679 q 401 649 432 600 q 462 550 462 488 l 462 488 q 462 443 448 411 q 434 378 413 357 q 392 336 371 324 q 349 312 334 307 l 334 307 q 326 305 322 303 l 322 303 q 322 287 318 271 l 318 271 q 314 254 296 244 q 278 234 236 234 z m 233 -10 l 233 -10 q 175 -10 157 12 q 138 34 138 87 l 138 87 q 138 109 142 131 q 146 153 166 168 q 186 182 234 182 l 234 182 q 293 182 312 160 q 330 138 330 85 l 330 85 q 330 63 326 41 q 322 19 302 5 q 281 -10 233 -10 z"},"@":{"x_min":14,"x_max":830,"ha":844,"o":"m 377 -130 l 377 -130 q 266 -130 185 -83 q 103 -37 59 49 q 14 135 14 251 l 14 251 q 14 334 43 404 q 72 473 125 524 q 177 575 249 603 q 321 631 406 631 l 406 631 q 503 631 582 604 q 660 577 716 527 q 771 477 801 406 q 830 335 830 246 l 830 246 q 830 171 807 116 q 784 61 747 25 q 709 -11 665 -29 q 620 -47 578 -47 l 578 -47 q 511 -47 469 -8 q 426 31 426 96 l 426 96 l 426 101 q 419 96 409 91 q 398 86 385 83 q 371 80 354 80 l 354 80 q 324 80 297 94 q 270 107 249 130 q 228 153 217 183 q 205 213 205 246 l 205 246 l 205 258 q 205 263 206 269 l 206 269 q 210 305 228 338 q 246 371 273 397 q 300 423 332 438 q 364 453 397 453 l 397 453 q 418 453 436 447 q 453 441 467 430 l 467 430 q 469 427 471 425 l 471 425 q 476 435 483 441 l 483 441 q 500 454 537 454 l 537 454 q 569 454 586 443 q 603 432 600 407 l 600 407 l 560 98 q 560 91 564 89 q 567 87 582 87 l 582 87 q 594 87 613 94 q 632 100 652 118 q 671 135 684 169 q 697 202 697 257 l 697 257 q 697 313 678 358 q 658 402 621 433 q 584 464 532 481 q 479 497 413 497 l 413 497 q 333 497 274 467 q 214 437 182 384 q 149 330 149 257 l 149 257 q 149 174 175 118 q 201 62 252 34 q 303 5 378 5 l 378 5 q 406 5 420 1 q 434 -4 440 -18 q 445 -33 445 -63 l 445 -63 q 445 -96 435 -110 q 424 -124 409 -127 q 393 -130 377 -130 z m 386 217 l 386 217 q 396 217 406 221 q 415 225 423 232 q 431 239 437 248 q 442 257 443 267 l 443 267 l 443 272 q 443 282 440 290 q 437 298 431 304 q 425 310 417 313 q 409 316 400 316 l 400 316 q 390 316 380 312 q 370 308 362 301 q 354 294 349 285 q 344 276 342 265 l 342 265 l 342 259 q 342 248 348 238 q 354 228 364 223 q 374 217 386 217 z"},"A":{"x_min":4,"x_max":707,"ha":711,"o":"m 439 637 l 690 118 q 705 88 706 67 q 707 46 693 30 q 679 14 648 -2 l 648 -2 q 600 -25 574 -16 q 548 -8 525 41 l 525 41 l 479 136 l 233 136 l 187 40 q 163 -7 137 -15 q 111 -24 64 -1 l 64 -1 q 33 14 19 30 q 4 46 5 67 q 6 88 21 118 l 21 118 l 272 638 q 284 662 308 677 q 331 691 356 691 l 356 691 q 374 691 390 685 q 405 678 418 666 q 431 654 439 637 l 439 637 z m 308 292 l 402 292 l 355 389 l 308 292 z"},"B":{"x_min":30,"x_max":589,"ha":609,"o":"m 366 -8 l 121 -8 q 76 -8 57 6 q 38 19 34 41 q 30 62 30 85 l 30 85 l 30 601 q 30 623 34 644 q 38 665 57 679 q 76 692 122 692 l 122 692 l 356 692 q 417 692 465 663 q 513 633 541 584 q 569 535 569 478 l 569 478 q 569 459 566 440 q 562 420 555 402 q 547 383 536 366 l 536 366 q 553 345 565 321 q 577 296 583 271 q 589 245 589 219 l 589 219 q 588 171 571 130 q 553 88 522 58 q 491 27 451 10 q 411 -8 366 -8 l 366 -8 z m 213 509 l 213 175 l 356 175 q 363 175 375 178 q 387 180 397 192 q 406 203 406 230 l 406 230 q 406 244 404 254 q 401 263 396 269 q 391 274 385 277 q 378 279 370 280 q 361 281 351 281 l 351 281 l 338 281 q 298 281 281 298 q 264 315 264 358 l 264 358 q 264 399 283 416 q 301 432 343 432 l 343 432 l 355 432 q 363 432 369 433 q 375 434 379 438 q 382 442 384 450 q 386 457 386 470 l 386 470 q 386 493 376 501 q 365 509 334 509 l 334 509 l 213 509 z"},"C":{"x_min":14,"x_max":618,"ha":631,"o":"m 376 -19 l 376 -19 q 337 -19 289 -6 q 241 6 193 33 q 144 60 104 103 q 63 146 39 206 q 14 266 14 345 l 14 345 q 14 421 39 479 q 63 537 103 579 q 143 621 192 647 q 240 673 289 686 q 338 698 379 698 l 379 698 q 430 698 469 686 q 508 673 533 660 q 557 646 563 642 l 563 642 q 583 629 601 614 q 618 598 618 572 l 618 572 q 618 559 613 545 q 607 531 596 516 l 596 516 q 576 488 559 475 q 541 462 524 462 l 524 462 q 511 462 499 468 q 487 474 470 485 l 470 485 q 463 490 452 497 q 441 503 422 509 q 403 514 372 514 l 372 514 q 346 514 316 505 q 285 495 258 475 q 231 454 214 421 q 197 387 197 340 l 197 340 q 197 292 215 259 q 232 226 259 206 q 286 185 317 176 q 347 166 372 166 l 372 166 q 398 166 416 171 q 434 175 449 183 q 463 191 475 199 l 475 199 q 486 207 499 213 q 512 219 525 219 l 525 219 q 542 219 559 205 q 576 191 595 162 l 595 162 q 606 145 612 131 q 617 116 617 104 l 617 104 q 617 79 600 64 q 582 49 562 37 l 562 37 q 555 33 532 19 q 509 5 470 -7 q 431 -19 376 -19 z"},"D":{"x_min":28,"x_max":641,"ha":655,"o":"m 289 -8 l 119 -8 q 76 -8 57 5 q 38 18 33 39 q 28 60 28 84 l 28 84 l 28 601 q 28 623 32 644 q 36 665 55 679 q 74 692 120 691 l 120 691 l 292 691 q 363 691 426 664 q 489 637 538 590 q 586 542 614 479 q 641 416 641 345 l 641 345 q 641 272 614 208 q 586 144 538 96 q 489 47 426 20 q 362 -8 289 -8 l 289 -8 z m 211 508 l 211 175 l 292 175 q 337 175 375 198 q 413 220 436 258 q 458 295 458 341 l 458 341 q 458 387 436 425 q 413 463 375 486 q 337 508 291 508 l 291 508 l 211 508 z"},"E":{"x_min":38,"x_max":589,"ha":603,"o":"m 497 -9 l 129 -9 q 84 -9 65 5 q 46 18 42 40 q 38 61 38 83 l 38 83 l 38 600 q 38 652 59 672 q 79 691 132 691 l 132 691 l 498 691 q 521 691 542 687 q 562 683 576 664 q 589 645 589 599 l 589 599 q 589 554 576 535 q 562 516 541 512 q 520 508 497 508 l 497 508 l 221 508 l 221 419 l 406 419 q 429 419 447 416 q 465 412 476 396 q 487 380 487 340 l 487 340 q 487 302 476 286 q 465 269 446 266 q 427 263 404 263 l 404 263 l 221 263 l 221 174 l 498 174 q 521 174 542 170 q 562 166 576 147 q 589 128 589 82 l 589 82 q 589 37 576 18 q 562 -1 541 -5 q 520 -9 497 -9 l 497 -9 z"},"F":{"x_min":38,"x_max":588,"ha":613,"o":"m 129 -9 l 129 -9 q 84 -9 65 5 q 46 18 42 40 q 38 61 38 83 l 38 83 l 38 600 q 38 652 59 672 q 79 691 132 691 l 132 691 l 498 691 q 521 691 542 687 q 562 683 575 664 q 588 645 588 599 l 588 599 q 588 554 575 535 q 561 516 540 512 q 519 508 496 508 l 496 508 l 221 508 l 221 419 l 405 419 q 428 419 447 416 q 465 412 476 396 q 486 379 486 339 l 486 339 q 486 301 475 285 q 464 269 446 266 q 427 263 404 263 l 404 263 l 221 263 l 221 82 q 221 60 217 39 q 213 18 194 5 q 175 -9 129 -9 z"},"G":{"x_min":35,"x_max":674,"ha":719,"o":"m 387 -19 l 387 -19 q 315 -19 252 10 q 188 39 139 90 q 90 141 63 208 q 35 275 35 351 l 35 351 q 35 424 63 488 q 91 551 141 600 q 190 648 255 676 q 320 703 394 703 l 394 703 q 426 703 463 697 q 500 691 536 679 q 571 666 597 648 l 597 648 q 618 634 636 618 q 653 602 653 578 l 653 578 q 653 566 647 552 q 641 538 630 522 l 630 522 q 611 494 592 482 q 573 469 556 469 l 556 469 q 545 469 534 475 q 522 480 502 492 l 502 492 q 496 496 479 503 q 462 509 439 515 q 415 520 389 520 l 389 520 q 342 520 303 498 q 264 475 241 436 q 218 397 218 349 l 218 349 q 218 300 242 259 q 266 217 306 192 q 345 166 391 166 l 391 166 q 409 166 427 167 q 444 168 461 171 q 478 174 491 179 l 491 179 l 491 265 l 417 265 q 399 265 383 269 q 367 272 357 288 q 347 304 347 343 l 347 343 q 347 382 358 398 q 369 414 386 417 q 403 420 420 420 l 420 420 l 595 420 q 635 419 651 406 q 667 392 671 373 q 674 354 674 333 l 674 333 l 674 128 q 674 100 650 71 q 626 41 585 20 l 585 20 q 560 7 529 -1 q 498 -10 463 -14 q 427 -19 387 -19 z"},"H":{"x_min":28,"x_max":622,"ha":650,"o":"m 530 -8 l 530 -8 q 485 -8 466 6 q 447 19 443 41 q 439 62 439 84 l 439 84 l 439 263 l 211 263 l 211 83 q 211 61 207 40 q 203 19 184 6 q 165 -8 119 -8 l 119 -8 q 74 -8 55 6 q 36 19 32 41 q 28 62 28 84 l 28 84 l 28 600 q 28 622 32 643 q 36 664 55 678 q 74 691 120 691 q 166 691 185 678 q 203 664 207 643 q 211 622 211 599 l 211 599 l 211 419 l 439 419 l 439 600 q 439 622 443 643 q 447 664 466 678 q 485 691 531 691 q 577 691 596 678 q 614 664 618 643 q 622 622 622 599 l 622 599 l 622 83 q 622 61 618 40 q 614 19 595 6 q 576 -8 530 -8 z"},"I":{"x_min":28,"x_max":211,"ha":239,"o":"m 119 -9 l 119 -9 q 74 -9 55 5 q 36 18 32 40 q 28 61 28 83 l 28 83 l 28 600 q 28 622 32 643 q 36 664 55 678 q 74 691 120 691 l 120 691 q 166 691 185 678 q 203 664 207 643 q 211 622 211 599 l 211 599 l 211 82 q 211 60 207 39 q 203 18 184 5 q 165 -9 119 -9 z"},"J":{"x_min":15,"x_max":493,"ha":531,"o":"m 232 -19 l 232 -19 q 190 -19 156 -7 q 122 5 99 21 q 75 37 63 49 l 63 49 l 50 61 q 37 75 26 90 q 15 104 15 123 l 15 123 q 15 139 24 156 q 32 172 50 191 l 50 191 q 67 209 83 218 q 99 227 115 227 l 115 227 q 135 227 152 215 q 168 203 181 189 l 181 189 q 185 186 192 181 q 199 175 210 171 q 221 166 237 166 q 253 166 267 172 q 280 177 290 188 q 299 198 304 213 q 309 227 309 245 l 309 245 l 309 592 q 309 615 314 638 q 318 661 338 676 q 357 691 403 691 l 403 691 q 447 691 466 677 q 484 663 489 642 q 493 620 493 598 l 493 598 l 493 238 q 493 185 473 139 q 453 92 417 57 q 381 21 334 1 q 286 -19 232 -19 z"},"K":{"x_min":40,"x_max":574,"ha":597,"o":"m 131 -9 l 131 -9 q 86 -9 67 5 q 48 18 44 40 q 40 61 40 83 l 40 83 l 40 600 q 40 622 44 643 q 48 664 67 678 q 86 691 132 691 l 132 691 q 178 691 197 678 q 215 664 219 643 q 223 622 223 599 l 223 599 l 223 461 l 397 660 q 420 685 440 695 q 460 705 481 699 q 502 693 527 669 l 527 669 q 568 632 569 604 q 570 576 536 540 l 536 540 l 340 340 l 537 143 q 574 106 572 77 q 569 47 528 13 l 528 13 q 498 -11 477 -17 q 456 -23 438 -12 q 420 -2 398 24 l 398 24 l 223 223 l 223 82 q 223 60 219 39 q 215 18 196 5 q 177 -9 131 -9 z"},"L":{"x_min":50,"x_max":554,"ha":569,"o":"m 476 -9 l 141 -9 q 96 -9 77 5 q 58 18 54 40 q 50 61 50 83 l 50 83 l 50 600 q 50 622 54 643 q 58 664 77 678 q 96 691 142 691 l 142 691 q 188 691 207 678 q 225 664 229 643 q 233 622 233 599 l 233 599 l 233 147 l 477 147 q 496 147 514 144 q 531 141 543 125 q 554 108 554 69 l 554 69 q 554 31 542 15 q 530 -2 513 -5 q 495 -9 476 -9 l 476 -9 z"},"M":{"x_min":28,"x_max":781,"ha":809,"o":"m 118 -8 l 118 -8 q 74 -8 55 5 q 36 18 32 39 q 28 60 28 84 l 28 84 l 28 600 q 28 622 32 643 q 36 663 55 677 q 74 690 120 690 l 120 690 q 151 690 166 686 q 180 682 187 676 q 193 670 200 662 l 200 662 l 404 400 l 607 661 q 617 672 626 678 q 634 684 649 687 q 663 690 690 690 l 690 690 q 735 690 754 677 q 773 663 777 642 q 781 621 781 598 l 781 598 l 781 82 q 781 60 777 39 q 773 18 754 5 q 735 -8 689 -8 l 689 -8 q 644 -8 625 6 q 606 19 602 41 q 598 62 598 84 l 598 84 l 598 368 l 481 209 l 469 194 q 461 184 446 176 q 431 168 404 168 q 377 168 362 176 q 346 184 338 194 q 330 203 326 209 l 326 209 l 210 367 l 210 82 q 210 60 206 39 q 202 18 183 5 q 164 -8 118 -8 z"},"N":{"x_min":28,"x_max":642,"ha":670,"o":"m 118 -9 l 118 -9 q 74 -9 55 5 q 36 18 32 39 q 28 60 28 83 l 28 83 l 28 602 q 28 624 32 644 q 36 664 56 677 q 75 690 120 690 l 120 690 q 164 690 180 679 q 196 668 209 651 l 209 651 l 459 315 l 459 602 q 459 624 464 644 q 468 664 487 677 q 506 690 551 690 l 551 690 q 597 690 616 677 q 634 663 638 642 q 642 621 642 598 l 642 598 l 642 82 q 642 60 638 39 q 634 18 615 5 q 596 -9 550 -9 l 550 -9 q 516 -9 499 -3 q 481 2 469 18 l 469 18 l 210 360 l 210 82 q 210 60 206 39 q 202 18 183 5 q 164 -9 118 -9 z"},"O":{"x_min":14,"x_max":707,"ha":721,"o":"m 365 -20 l 365 -20 q 292 -20 229 8 q 165 35 117 84 q 69 133 42 198 q 14 262 14 335 l 14 335 q 14 411 41 477 q 67 543 114 593 q 161 643 224 671 q 286 699 357 699 l 357 699 q 430 699 494 672 q 557 644 605 595 q 653 546 680 481 q 707 415 707 339 l 707 339 q 707 265 681 200 q 654 135 607 86 q 559 36 498 8 q 436 -20 365 -20 z m 360 163 l 360 163 q 394 163 424 177 q 454 190 477 214 q 499 237 512 270 q 524 302 524 339 l 524 339 q 524 376 511 408 q 498 440 476 465 q 453 489 424 503 q 394 516 361 516 l 361 516 q 327 516 298 503 q 268 489 246 465 q 223 440 210 408 q 197 376 197 339 l 197 339 q 197 303 210 271 q 223 239 246 215 q 268 190 298 177 q 327 163 360 163 z"},"P":{"x_min":35,"x_max":581,"ha":595,"o":"m 126 -8 l 126 -8 q 81 -8 62 6 q 43 19 39 41 q 35 62 35 84 l 35 84 l 35 600 q 35 622 39 643 q 43 664 62 678 q 81 691 127 691 l 127 691 l 326 691 q 364 691 408 676 q 452 660 492 628 q 531 596 556 548 q 581 500 581 434 l 581 434 q 581 369 556 321 q 531 273 492 242 q 452 210 408 195 q 364 179 325 179 l 325 179 l 218 179 l 218 83 q 218 61 214 40 q 210 19 191 6 q 172 -8 126 -8 z m 218 508 l 218 362 l 326 362 q 339 362 356 369 q 373 375 386 391 q 399 407 399 435 l 399 435 q 399 456 389 473 q 379 489 363 499 q 346 508 325 508 l 325 508 l 218 508 z"},"Q":{"x_min":14,"x_max":772,"ha":782,"o":"m 674 188 l 719 158 q 762 130 767 103 q 772 75 741 31 l 741 31 q 719 0 701 -11 q 683 -22 663 -16 q 642 -10 614 8 l 614 8 l 558 44 q 517 14 468 -3 q 419 -20 365 -20 l 365 -20 q 292 -20 229 8 q 165 35 117 84 q 69 133 42 198 q 14 262 14 335 l 14 335 q 14 411 41 477 q 67 543 114 593 q 161 643 224 671 q 286 699 357 699 l 357 699 q 430 699 494 672 q 557 644 605 595 q 653 546 680 481 q 707 415 707 339 l 707 339 q 707 299 699 261 q 690 223 674 188 l 674 188 z m 360 163 l 360 163 q 394 163 424 177 q 454 190 477 214 q 499 237 512 270 q 524 302 524 339 l 524 339 q 524 376 511 408 q 498 440 476 465 q 453 489 424 503 q 394 516 361 516 l 361 516 q 327 516 297 503 q 267 489 245 465 q 222 440 210 408 q 197 376 197 339 l 197 339 q 197 302 210 270 q 223 238 246 214 q 268 190 298 177 q 327 163 360 163 z"},"R":{"x_min":35,"x_max":597,"ha":604,"o":"m 126 -8 l 126 -8 q 81 -8 62 6 q 43 19 39 41 q 35 62 35 84 l 35 84 l 35 600 q 35 622 39 643 q 43 664 62 678 q 81 691 127 691 l 127 691 l 328 691 q 366 691 410 676 q 454 660 493 628 q 532 596 557 548 q 582 500 582 434 l 582 434 q 582 388 569 348 q 555 308 529 276 l 529 276 q 513 257 494 241 l 494 241 l 566 144 q 586 115 592 95 q 597 75 586 57 q 575 39 545 16 l 545 16 q 500 -18 474 -11 q 448 -5 418 35 l 418 35 l 311 180 l 218 180 l 218 83 q 218 61 214 40 q 210 19 191 6 q 172 -8 126 -8 z m 218 508 l 218 362 l 328 362 q 337 362 350 366 q 362 369 373 378 q 384 386 392 400 q 399 414 399 435 q 399 456 389 473 q 379 489 363 499 q 346 508 326 508 l 326 508 l 218 508 z"},"S":{"x_min":11,"x_max":528,"ha":542,"o":"m 271 -19 l 271 -19 q 210 -19 168 -4 q 125 11 98 32 q 71 52 57 69 q 43 86 40 90 l 40 90 q 20 115 16 135 q 11 155 22 175 q 32 195 57 219 l 57 219 q 80 241 102 244 q 124 246 146 234 q 167 222 187 199 l 187 199 q 211 172 228 163 q 245 153 267 153 l 267 153 q 294 153 311 160 q 328 166 336 180 q 344 193 344 214 l 344 214 q 344 231 327 241 q 310 250 283 257 q 255 264 221 273 q 187 281 154 295 l 154 295 q 134 303 115 315 q 96 327 80 343 q 63 358 51 380 q 39 401 33 428 q 26 455 26 489 l 26 489 q 26 550 57 598 q 87 646 141 674 q 194 702 262 702 l 262 702 q 311 702 346 694 q 381 686 404 675 q 426 664 438 655 q 450 645 453 642 l 453 642 q 486 612 489 591 q 492 569 465 529 l 465 529 q 435 486 406 481 q 377 475 339 499 l 339 499 q 331 505 323 513 q 315 520 302 526 q 288 531 261 531 l 261 531 q 251 531 241 528 q 231 524 224 519 q 217 513 213 505 q 208 497 208 488 l 208 488 q 208 467 224 456 q 240 444 267 438 q 293 432 325 426 q 357 420 390 410 l 390 410 q 417 401 442 387 q 467 373 486 351 q 505 329 517 297 q 528 264 528 217 l 528 217 q 528 152 503 107 q 478 61 439 34 q 399 6 355 -6 q 310 -19 271 -19 z"},"T":{"x_min":15,"x_max":625,"ha":640,"o":"m 92 692 l 549 692 q 568 692 585 689 q 602 686 614 670 q 625 654 625 615 l 625 615 q 625 577 614 561 q 602 544 585 541 q 567 538 548 538 l 548 538 l 410 538 l 410 80 q 410 58 406 38 q 402 17 384 4 q 365 -9 319 -9 l 319 -9 q 275 -9 256 5 q 237 18 234 39 q 230 59 230 81 l 230 81 l 230 538 l 91 538 q 73 538 56 542 q 38 545 27 561 q 15 577 15 616 l 15 616 q 15 654 27 670 q 38 686 56 689 q 74 692 92 692 l 92 692 z"},"U":{"x_min":28,"x_max":647,"ha":675,"o":"m 336 -20 l 336 -20 q 260 -20 203 11 q 145 41 106 91 q 67 141 48 201 q 28 261 28 320 l 28 320 l 28 600 q 28 623 32 644 q 36 665 55 679 q 74 692 120 692 l 120 692 q 166 692 185 679 q 204 665 208 644 q 212 623 212 599 l 212 599 l 212 320 q 212 287 223 251 q 234 215 262 190 q 289 164 339 164 l 339 164 q 377 164 405 184 q 433 203 449 239 q 464 274 464 321 l 464 321 l 464 605 q 464 627 469 647 q 473 666 492 679 q 511 692 556 692 l 556 692 q 602 692 621 678 q 639 664 643 643 q 647 622 647 599 l 647 599 l 647 318 q 647 258 627 199 q 607 139 568 90 q 528 40 470 10 q 412 -20 336 -20 z"},"V":{"x_min":20,"x_max":709,"ha":728,"o":"m 366 -8 l 366 -8 q 333 -8 310 5 q 287 17 276 42 l 276 42 l 39 563 q 20 607 30 633 q 39 658 85 680 l 85 680 q 117 698 140 699 q 162 699 178 684 q 194 669 206 638 l 206 638 l 364 249 l 522 638 q 535 669 551 684 q 567 699 590 698 q 613 697 643 680 l 643 680 q 693 656 701 632 q 709 607 689 563 l 689 563 l 452 42 q 442 20 419 6 q 395 -8 366 -8 z"},"W":{"x_min":9,"x_max":932,"ha":947,"o":"m 290 -8 l 290 -8 q 258 -8 240 5 q 222 18 214 34 q 206 49 204 54 l 204 54 l 24 570 q 9 620 20 645 q 30 669 82 686 l 82 686 q 116 697 137 696 q 158 695 172 679 q 186 663 197 629 l 197 629 l 301 325 l 383 624 q 386 634 394 650 q 401 666 419 679 q 437 691 471 691 l 471 691 q 509 691 528 677 q 546 663 553 647 q 560 631 563 623 l 563 623 l 645 323 l 749 629 q 760 662 774 679 q 787 695 809 697 q 831 699 865 687 l 865 687 q 901 674 916 660 q 931 645 932 624 q 932 603 922 570 l 922 570 l 743 54 q 741 48 734 33 q 726 18 708 5 q 690 -8 656 -8 l 656 -8 q 622 -8 603 8 q 584 23 576 40 q 568 56 567 59 l 567 59 l 473 367 l 379 60 q 378 55 370 39 q 362 22 344 7 q 325 -8 290 -8 z"},"X":{"x_min":8,"x_max":682,"ha":689,"o":"m 641 16 l 641 16 q 614 -8 594 -15 q 573 -23 554 -13 q 535 -4 512 22 l 512 22 l 345 206 l 177 22 q 155 -4 136 -13 q 116 -23 96 -15 q 75 -8 48 16 l 48 16 q 8 52 9 80 q 9 107 43 144 l 43 144 l 222 341 l 42 538 q 9 573 9 602 q 8 631 47 667 l 47 667 q 74 692 95 700 q 115 707 135 698 q 154 688 176 661 l 176 661 l 345 476 l 513 661 q 536 688 555 698 q 574 707 595 700 q 615 692 642 667 l 642 667 q 682 631 681 602 q 680 573 647 538 l 647 538 l 467 341 l 646 144 q 680 107 681 80 q 682 52 641 16 z"},"Y":{"x_min":0,"x_max":636,"ha":638,"o":"m 584 676 l 584 676 q 628 646 632 619 q 636 591 610 553 l 610 553 l 411 255 l 411 80 q 411 58 407 37 q 403 16 384 3 q 365 -11 319 -11 l 319 -11 q 273 -11 254 3 q 235 16 231 38 q 227 59 227 82 l 227 82 l 227 255 l 28 553 q 0 592 6 620 q 12 648 55 676 l 55 676 q 86 697 108 701 q 130 704 148 692 q 166 679 183 651 l 183 651 l 316 437 l 455 651 q 474 680 492 692 q 509 704 531 700 q 553 696 584 676 z"},"Z":{"x_min":14,"x_max":584,"ha":598,"o":"m 492 -11 l 105 -11 q 67 -11 41 16 q 14 42 14 82 l 14 82 q 14 96 17 108 q 20 119 27 127 l 27 127 l 305 512 l 109 512 q 87 512 65 516 q 43 519 29 538 q 14 556 14 600 l 14 600 q 14 646 28 665 q 41 684 63 688 q 84 692 106 692 l 106 692 l 480 692 q 518 692 545 665 q 571 638 571 598 l 571 598 q 571 584 568 573 q 565 561 558 553 l 558 553 l 280 168 l 494 168 q 516 168 537 164 q 557 160 571 142 q 584 123 584 80 l 584 80 q 584 35 571 16 q 557 -3 536 -7 q 515 -11 492 -11 l 492 -11 z"},"[":{"x_min":28,"x_max":319,"ha":324,"o":"m 256 -173 l 113 -173 q 71 -173 53 -159 q 35 -146 32 -125 q 28 -104 28 -83 l 28 -83 l 28 685 q 28 707 32 728 q 35 748 53 762 q 71 775 113 775 l 113 775 l 257 775 q 272 775 286 772 q 300 769 310 753 q 319 737 319 698 l 319 698 q 319 660 310 644 q 300 628 286 625 q 271 622 256 622 l 256 622 l 197 622 l 197 -20 l 257 -20 q 272 -20 286 -23 q 300 -26 310 -42 q 319 -59 319 -98 l 319 -98 q 319 -135 310 -151 q 300 -167 286 -170 q 271 -173 256 -173 l 256 -173 z"},"\\":{"x_min":-1,"x_max":490,"ha":491,"o":"m 431 -46 l 431 -46 q 401 -60 380 -61 q 359 -62 344 -49 q 329 -36 318 -11 l 318 -11 l 17 618 q -1 654 9 677 q 19 700 62 721 l 62 721 q 106 741 131 734 q 156 726 175 687 l 175 687 l 472 65 q 490 22 481 -2 q 472 -26 431 -46 z"},"]":{"x_min":5,"x_max":296,"ha":324,"o":"m 211 -173 l 68 -173 q 54 -173 39 -170 q 24 -167 15 -151 q 5 -135 5 -98 l 5 -98 q 5 -59 15 -42 q 24 -26 39 -23 q 53 -20 67 -20 l 67 -20 l 126 -20 l 126 622 l 68 622 q 54 622 39 625 q 24 628 15 644 q 5 660 5 698 l 5 698 q 5 737 15 753 q 24 769 39 772 q 53 775 67 775 l 67 775 l 210 775 q 253 775 271 762 q 289 748 293 728 q 296 707 296 685 l 296 685 l 296 -83 q 296 -104 293 -125 q 289 -146 272 -159 q 254 -173 211 -173 l 211 -173 z"},"^":{"x_min":26,"x_max":463,"ha":489,"o":"m 245 514 l 245 514 q 262 514 275 507 q 287 499 297 489 l 297 489 l 433 352 q 445 341 454 328 q 463 314 460 296 q 457 277 431 251 l 431 251 q 405 225 386 222 q 367 219 354 228 q 340 237 330 247 l 330 247 l 245 333 l 160 247 q 150 237 137 228 q 123 219 105 222 q 86 225 59 251 l 59 251 q 33 277 30 296 q 26 314 36 328 q 45 341 56 352 l 56 352 l 193 489 q 202 499 215 507 q 227 514 245 514 z"},"_":{"x_min":5,"x_max":764,"ha":768,"o":"m 697 -221 l 71 -221 q 56 -221 41 -218 q 25 -215 15 -199 q 5 -184 5 -148 l 5 -148 q 5 -111 16 -95 q 26 -80 42 -77 q 57 -74 72 -74 l 72 -74 l 698 -74 q 713 -74 729 -77 q 744 -80 754 -95 q 764 -111 764 -149 l 764 -149 q 764 -185 754 -200 q 743 -215 728 -218 q 712 -221 697 -221 l 697 -221 z"},"`":{"x_min":47,"x_max":348,"ha":448,"o":"m 254 525 l 254 525 l 97 575 q 60 588 54 608 q 47 628 59 668 l 59 668 q 72 712 89 722 q 106 732 143 722 l 143 722 l 296 675 q 333 663 341 643 q 348 622 335 581 l 335 581 q 322 538 306 528 q 289 518 254 525 z"},"a":{"x_min":15,"x_max":527,"ha":557,"o":"m 436 -7 l 436 -7 q 391 -7 370 8 l 370 8 q 355 18 351 30 l 351 30 q 348 27 344 24 l 344 24 q 329 12 305 3 q 281 -7 246 -7 l 246 -7 q 201 -7 160 14 q 118 34 86 70 q 53 106 34 152 q 15 197 15 247 l 15 247 q 15 296 34 341 q 53 386 86 422 q 119 457 160 478 q 201 498 246 498 l 246 498 q 280 498 304 488 q 327 478 342 466 l 342 466 q 347 462 351 458 l 351 458 q 354 474 371 485 l 371 485 q 392 499 437 499 q 482 499 501 486 q 519 472 523 451 q 527 430 527 408 l 527 408 l 527 83 q 527 61 523 40 q 519 19 501 6 q 482 -7 436 -7 z m 271 174 l 271 174 q 290 174 306 184 q 321 194 331 211 q 340 227 340 246 l 340 246 q 340 266 331 282 q 321 298 305 308 q 289 318 269 318 q 249 318 233 308 q 216 298 206 282 q 196 265 196 245 l 196 245 q 196 226 207 210 q 217 194 234 184 q 251 174 271 174 z"},"b":{"x_min":30,"x_max":539,"ha":554,"o":"m 308 -7 l 308 -7 q 259 -7 223 15 l 223 15 q 212 21 202 29 l 202 29 q 195 13 181 4 l 181 4 q 161 -8 120 -8 l 120 -8 q 75 -8 56 6 q 37 19 34 40 q 30 61 30 83 l 30 83 l 30 638 q 30 661 34 682 q 38 702 57 715 q 76 728 121 728 q 166 728 184 715 q 202 701 205 680 q 208 659 207 637 l 207 637 l 207 465 q 216 472 225 478 l 225 478 q 260 498 308 498 l 308 498 q 352 498 394 477 q 435 456 468 421 q 501 385 520 340 q 539 295 539 247 l 539 247 q 539 197 520 151 q 501 105 469 70 q 436 34 395 14 q 353 -7 308 -7 z m 284 173 l 284 173 q 304 173 321 183 q 337 193 347 210 q 357 226 357 245 l 357 245 q 357 265 348 282 q 338 298 322 308 q 305 317 285 317 q 265 317 249 307 q 232 297 223 281 q 213 265 213 245 l 213 245 q 213 226 223 210 q 233 193 249 183 q 265 173 284 173 z"},"c":{"x_min":25,"x_max":480,"ha":503,"o":"m 287 -14 l 287 -14 q 246 -14 201 3 q 155 19 115 52 q 75 84 50 133 q 25 182 25 247 l 25 247 q 25 311 50 360 q 75 408 115 440 q 154 472 200 489 q 245 505 285 505 l 285 505 q 323 505 351 497 q 379 489 397 480 q 415 470 423 465 l 423 465 q 443 453 461 438 q 478 422 478 396 l 478 396 q 478 383 473 370 q 468 356 457 339 l 457 339 q 421 284 385 284 l 385 284 q 369 284 357 290 q 345 295 335 302 q 325 309 314 315 q 302 320 285 320 l 285 320 q 265 320 248 310 q 231 300 221 284 q 211 267 211 246 l 211 246 q 211 225 221 208 q 231 191 248 181 q 264 171 283 171 l 283 171 q 297 171 307 174 q 316 177 321 181 q 326 184 327 184 l 327 184 q 341 192 354 199 q 366 206 379 206 l 379 206 q 396 206 414 194 q 432 181 454 153 l 454 153 q 475 127 478 105 q 480 82 466 63 q 452 43 423 25 l 423 25 q 420 23 403 14 q 385 4 356 -5 q 327 -14 287 -14 z"},"d":{"x_min":15,"x_max":524,"ha":554,"o":"m 246 -7 l 246 -7 q 201 -7 160 14 q 118 34 86 70 q 53 105 34 151 q 15 197 15 247 l 15 247 q 15 295 34 340 q 53 385 86 421 q 119 456 161 477 q 202 498 246 498 l 246 498 q 294 498 329 478 l 329 478 q 338 472 347 465 l 347 465 l 347 637 q 347 659 350 680 q 352 701 370 715 q 388 728 433 728 l 433 728 q 479 728 498 715 q 516 702 520 682 q 524 661 524 638 l 524 638 l 524 83 q 524 61 520 40 q 516 19 498 6 q 479 -8 434 -8 l 434 -8 q 394 -8 374 4 l 374 4 q 359 13 352 29 l 352 29 q 342 21 332 15 l 332 15 q 296 -7 246 -7 z m 270 173 l 270 173 q 289 173 305 183 q 321 193 331 210 q 341 226 341 245 l 341 245 q 341 265 332 281 q 322 297 306 307 q 290 317 269 317 l 269 317 q 249 317 233 308 q 216 298 207 282 q 197 265 197 245 l 197 245 q 197 226 207 210 q 217 193 234 183 q 251 173 270 173 z"},"e":{"x_min":15,"x_max":520,"ha":535,"o":"m 288 -20 l 288 -20 q 213 -20 161 5 q 109 29 77 69 q 45 108 30 154 q 15 200 15 243 l 15 243 q 15 322 50 382 q 85 442 147 476 q 209 510 289 510 l 289 510 q 351 510 395 490 q 439 470 467 439 q 494 408 507 373 q 520 338 520 308 l 520 308 q 520 251 492 221 q 464 191 420 191 l 420 191 l 207 191 q 211 175 224 164 q 236 152 255 146 q 274 139 296 139 l 296 139 q 318 139 335 142 q 352 144 365 148 q 377 152 388 156 q 398 160 407 163 q 415 165 423 165 l 423 165 q 441 165 456 153 q 471 141 483 117 l 483 117 q 490 104 493 93 q 496 81 496 71 l 496 71 q 496 41 472 21 q 447 1 401 -9 q 355 -20 288 -20 z m 207 285 l 207 285 l 319 285 q 333 285 340 291 q 346 297 346 309 l 346 309 q 346 322 339 331 q 331 340 318 345 q 305 349 287 349 l 287 349 q 263 349 245 340 q 227 330 218 316 q 208 301 207 285 z"},"f":{"x_min":5,"x_max":414,"ha":419,"o":"m 180 -10 l 180 -10 q 136 -10 117 4 q 98 17 94 39 q 90 60 90 82 l 90 82 l 90 319 l 65 319 q 31 321 18 341 q 5 361 5 407 l 5 407 q 5 450 21 472 q 37 493 69 493 l 69 493 l 90 493 l 90 533 q 90 565 102 600 q 114 634 140 664 q 165 693 205 712 q 244 730 299 730 l 299 730 q 321 730 342 726 q 363 722 377 704 q 390 685 390 639 l 390 639 q 390 594 376 575 q 362 556 341 553 q 320 549 298 549 l 298 549 q 291 549 286 548 q 281 547 278 546 q 275 544 274 541 q 272 538 272 535 l 272 535 l 272 496 l 324 498 q 346 498 367 494 q 387 490 401 471 q 414 452 414 406 l 414 406 q 414 364 401 345 q 387 326 367 321 q 346 316 323 316 l 323 316 l 272 317 l 272 80 q 272 58 268 38 q 264 17 245 4 q 225 -10 180 -10 z"},"g":{"x_min":14,"x_max":516,"ha":546,"o":"m 265 -220 l 265 -220 q 230 -220 194 -210 q 157 -201 126 -185 q 95 -169 76 -150 q 57 -132 57 -114 l 57 -114 q 57 -94 65 -77 q 72 -60 87 -44 l 87 -44 q 103 -27 115 -17 q 127 -7 144 -7 l 144 -7 q 159 -7 171 -14 q 182 -21 194 -29 q 206 -38 224 -45 q 241 -52 268 -52 l 268 -52 q 283 -52 296 -45 q 309 -39 319 -27 q 328 -16 334 0 q 340 15 340 33 l 340 33 l 340 45 q 336 40 331 36 l 331 36 q 299 6 240 6 l 240 6 q 196 6 156 26 q 115 46 83 81 q 51 116 33 161 q 14 205 14 254 l 14 254 q 14 301 33 345 q 51 389 84 424 q 116 458 157 479 q 197 499 240 499 l 240 499 q 284 499 313 481 l 313 481 q 329 470 342 455 l 342 455 q 348 477 365 488 l 365 488 q 386 501 429 501 l 429 501 q 473 501 491 488 q 509 475 513 455 q 516 434 516 412 l 516 412 l 516 27 q 516 -32 494 -78 q 471 -124 434 -155 q 397 -187 353 -203 q 309 -220 265 -220 z m 264 182 l 264 182 q 283 182 299 192 q 314 202 324 218 q 333 234 333 252 l 333 252 q 333 272 324 288 q 314 304 298 314 q 282 323 262 323 l 262 323 q 243 323 227 313 q 211 303 202 287 q 192 271 192 252 l 192 252 q 192 234 202 218 q 212 202 229 192 q 245 182 264 182 z"},"h":{"x_min":28,"x_max":535,"ha":563,"o":"m 118 -9 l 118 -9 q 73 -9 54 5 q 35 18 32 39 q 28 60 28 82 l 28 82 l 28 638 q 28 661 32 682 q 36 702 55 715 q 74 728 119 728 l 119 728 q 164 728 183 715 q 201 701 205 681 q 209 660 209 637 l 209 637 l 209 455 q 224 469 250 484 q 275 498 309 498 l 309 498 q 373 498 424 465 q 475 431 505 374 q 535 317 535 245 l 535 245 l 535 81 q 535 59 531 39 q 527 18 509 5 q 490 -9 444 -9 l 444 -9 q 400 -9 381 4 q 361 17 357 38 q 353 59 353 83 l 353 83 l 353 246 q 353 268 345 284 q 337 299 322 308 q 307 317 286 317 l 286 317 q 259 317 236 300 q 213 283 209 261 l 209 261 l 209 81 q 209 59 205 38 q 201 17 183 4 q 164 -9 118 -9 z"},"i":{"x_min":35,"x_max":216,"ha":251,"o":"m 125 -9 l 125 -9 q 80 -9 61 5 q 42 18 39 39 q 35 60 35 82 l 35 82 l 35 408 q 35 430 39 451 q 43 471 62 485 q 81 498 126 498 l 126 498 q 171 498 190 485 q 208 471 212 450 q 216 429 216 406 l 216 406 l 216 81 q 216 59 212 38 q 208 17 190 4 q 171 -9 125 -9 z m 125 547 l 125 547 q 80 547 61 561 q 42 574 39 595 q 35 616 35 638 l 35 638 q 35 661 39 682 q 43 702 62 715 q 81 728 126 728 l 126 728 q 171 728 190 715 q 208 701 212 680 q 216 659 216 637 l 216 637 q 216 615 212 594 q 208 573 190 560 q 171 547 125 547 z"},"j":{"x_min":-132,"x_max":206,"ha":234,"o":"m -44 -219 l -44 -219 q -65 -219 -85 -215 q -105 -211 -118 -192 q -132 -174 -132 -129 l -132 -129 q -132 -87 -118 -68 q -105 -50 -84 -45 q -64 -41 -42 -41 l -42 -41 q -34 -41 -22 -38 q -10 -36 2 -28 q 13 -20 21 -5 q 28 10 28 35 l 28 35 l 28 419 q 28 439 32 458 q 36 477 55 490 q 74 502 118 502 l 118 502 q 162 502 181 489 q 199 475 203 455 q 206 434 206 412 l 206 412 l 206 29 q 206 -31 183 -77 q 160 -124 123 -155 q 86 -187 42 -203 q -2 -219 -44 -219 z m 116 549 l 116 549 q 65 549 47 568 q 28 587 28 639 l 28 639 q 28 690 47 709 q 66 727 118 727 l 118 727 q 169 727 188 709 q 206 690 206 639 l 206 639 q 206 587 187 568 q 168 549 116 549 z"},"k":{"x_min":35,"x_max":505,"ha":512,"o":"m 350 244 l 463 156 q 500 123 503 94 q 505 64 469 26 l 469 26 q 442 -2 423 -10 q 403 -19 384 -10 q 365 -2 339 21 l 339 21 l 216 136 l 216 81 q 216 59 212 38 q 208 17 190 4 q 171 -9 125 -9 l 125 -9 q 80 -9 61 5 q 42 18 39 39 q 35 60 35 82 l 35 82 l 35 639 q 35 662 39 683 q 43 703 62 717 q 81 730 126 730 l 126 730 q 171 730 190 717 q 208 703 212 682 q 216 661 216 638 l 216 638 l 216 362 l 301 445 q 325 468 346 477 q 367 485 388 478 q 408 470 431 445 l 431 445 q 470 403 469 377 q 467 351 431 315 l 431 315 l 350 244 z"},"l":{"x_min":35,"x_max":306,"ha":311,"o":"m 242 -9 l 242 -9 q 196 -9 162 -5 q 127 -1 103 11 q 79 23 64 46 q 49 68 42 105 q 35 141 35 196 l 35 196 l 35 639 q 35 662 39 683 q 43 703 62 717 q 81 730 126 730 l 126 730 q 171 730 190 717 q 208 703 212 682 q 216 661 216 638 l 216 638 l 216 207 q 216 192 217 184 q 217 175 220 171 q 222 167 228 167 q 233 166 243 166 l 243 166 q 256 166 271 163 q 285 159 296 142 q 306 124 306 81 l 306 81 q 306 36 296 17 q 285 -2 270 -5 q 255 -9 242 -9 z"},"m":{"x_min":28,"x_max":764,"ha":791,"o":"m 118 -9 l 118 -9 q 73 -9 54 5 q 35 18 32 39 q 28 60 28 82 l 28 82 l 28 409 q 28 432 32 453 q 36 473 55 486 q 74 499 120 499 l 120 499 q 165 499 186 482 l 186 482 q 199 470 204 449 l 204 449 q 210 457 219 465 l 219 465 q 233 479 254 490 q 275 500 302 500 l 302 500 q 333 500 359 492 q 385 484 407 468 q 428 451 444 427 l 444 427 q 455 440 474 457 q 493 474 520 487 q 546 500 579 500 l 579 500 q 638 500 680 470 q 721 440 743 383 q 764 326 764 245 l 764 245 l 764 82 q 764 60 760 39 q 756 18 737 5 q 718 -9 672 -9 l 672 -9 q 627 -9 608 5 q 589 19 586 40 q 582 61 582 83 l 582 83 l 582 246 q 582 270 577 286 q 571 301 561 309 q 550 317 534 317 l 534 317 q 517 317 507 310 q 496 303 492 288 q 487 272 487 245 l 487 245 l 487 82 q 487 60 483 39 q 479 18 460 5 q 441 -9 395 -9 l 395 -9 q 350 -9 331 5 q 312 19 309 40 q 305 61 305 83 l 305 83 l 305 246 q 305 270 300 286 q 295 302 285 310 q 274 317 257 317 l 257 317 q 237 317 227 307 q 217 297 214 281 q 210 265 210 246 l 210 246 l 210 81 q 210 59 206 38 q 202 17 183 4 q 164 -9 118 -9 z"},"n":{"x_min":30,"x_max":538,"ha":566,"o":"m 120 -8 l 120 -8 q 75 -8 56 6 q 37 19 34 40 q 30 61 30 83 l 30 83 l 30 412 q 30 434 34 454 q 38 474 57 487 q 76 499 121 499 l 121 499 q 162 499 181 489 q 199 478 204 463 l 204 463 q 209 449 209 437 l 209 437 q 211 441 214 444 l 214 444 q 226 459 247 472 q 267 484 291 492 q 314 499 335 499 l 335 499 q 385 499 423 480 q 461 461 487 427 q 512 392 525 346 q 538 300 538 246 l 538 246 l 538 82 q 538 60 534 39 q 530 18 512 5 q 493 -8 447 -8 q 401 -8 382 6 q 363 19 359 40 q 355 61 355 83 l 355 83 l 355 246 q 355 269 347 285 q 338 301 323 310 q 307 318 284 318 l 284 318 q 262 318 246 309 q 229 300 220 284 q 211 268 211 246 l 211 246 l 211 82 q 211 60 207 39 q 203 18 185 5 q 166 -8 120 -8 z"},"o":{"x_min":14,"x_max":544,"ha":558,"o":"m 280 -18 l 280 -18 q 234 -18 187 1 q 140 19 101 54 q 61 88 38 137 q 14 185 14 245 l 14 245 q 14 300 35 348 q 56 396 93 433 q 129 469 177 490 q 224 511 278 511 l 278 511 q 352 511 412 476 q 472 440 508 380 q 544 320 544 246 l 544 246 q 544 183 520 134 q 496 85 457 51 q 418 17 372 0 q 325 -18 280 -18 z m 278 165 l 278 165 q 293 165 313 173 q 332 180 347 198 q 361 216 361 247 l 361 247 q 361 272 351 290 q 340 308 321 318 q 302 328 277 328 l 277 328 q 255 328 237 318 q 219 307 208 289 q 197 270 197 246 l 197 246 q 197 216 211 198 q 225 180 244 173 q 263 165 278 165 z"},"p":{"x_min":26,"x_max":531,"ha":541,"o":"m 300 3 l 300 3 q 251 3 215 23 l 215 23 q 210 26 205 29 l 205 29 l 205 -132 q 207 -154 203 -174 q 198 -195 179 -208 q 160 -221 115 -221 l 115 -221 q 71 -221 52 -208 q 33 -195 30 -175 q 26 -155 26 -133 l 26 -133 l 26 410 q 26 432 30 452 q 33 472 52 486 q 70 499 114 499 l 114 499 q 149 499 172 490 l 172 490 q 191 482 201 467 l 201 467 q 209 473 217 478 l 217 478 q 252 498 300 498 l 300 498 q 344 498 386 477 q 427 456 460 421 q 493 385 512 340 q 531 295 531 247 l 531 247 q 531 197 512 153 q 493 108 461 75 q 428 41 387 22 q 345 3 300 3 z m 276 173 l 276 173 q 296 173 313 183 q 329 193 339 210 q 349 226 349 245 l 349 245 q 349 265 340 282 q 330 298 314 308 q 297 317 277 317 q 257 317 241 307 q 224 297 215 281 q 205 265 205 245 l 205 245 q 205 226 215 210 q 225 193 241 183 q 257 173 276 173 z"},"q":{"x_min":10,"x_max":515,"ha":543,"o":"m 241 3 l 241 3 q 196 3 155 22 q 113 41 81 75 q 48 108 29 153 q 10 197 10 247 l 10 247 q 10 295 29 340 q 48 385 81 421 q 114 456 156 477 q 197 498 241 498 l 241 498 q 289 498 324 478 l 324 478 q 332 473 340 467 l 340 467 q 346 476 355 483 l 355 483 q 367 491 386 495 q 404 499 427 499 l 427 499 q 471 499 490 486 q 508 472 512 452 q 515 432 515 410 l 515 410 l 515 -133 q 515 -155 512 -175 q 508 -195 490 -208 q 471 -221 426 -221 l 426 -221 q 382 -221 363 -208 q 343 -195 339 -174 q 335 -154 336 -132 l 336 -132 l 336 29 q 331 26 327 23 l 327 23 q 291 3 241 3 z m 265 173 l 265 173 q 284 173 300 183 q 316 193 326 210 q 336 226 336 245 l 336 245 q 336 265 327 281 q 317 297 301 307 q 285 317 264 317 l 264 317 q 244 317 228 308 q 211 298 202 282 q 192 265 192 245 l 192 245 q 192 226 202 210 q 212 193 229 183 q 246 173 265 173 z"},"r":{"x_min":30,"x_max":422,"ha":432,"o":"m 120 -9 l 120 -9 q 75 -9 56 5 q 37 18 34 40 q 30 61 30 83 l 30 83 l 30 409 q 30 432 34 453 q 38 473 57 486 q 76 499 121 499 l 121 499 q 165 499 184 487 q 202 475 206 461 l 206 461 q 206 459 207 458 l 207 458 q 214 465 226 474 l 226 474 q 241 486 263 495 q 284 504 311 504 l 311 504 q 320 504 334 503 q 347 501 363 497 q 378 493 392 485 q 405 477 414 464 q 422 451 422 432 l 422 432 q 422 382 401 347 q 379 312 344 312 l 344 312 q 325 312 317 315 q 309 317 306 320 q 302 322 298 325 q 293 327 281 327 l 281 327 q 266 327 254 324 q 241 320 232 313 q 222 306 217 297 q 212 287 212 276 l 212 276 l 212 81 q 212 59 208 38 q 204 17 185 4 q 166 -9 120 -9 z"},"s":{"x_min":15,"x_max":442,"ha":457,"o":"m 219 -18 l 219 -18 q 191 -18 157 -11 q 122 -5 90 8 q 57 20 36 37 q 15 54 15 76 l 15 76 q 15 86 20 99 q 24 111 32 126 q 40 141 52 158 l 52 158 q 59 168 69 173 q 78 178 91 178 l 91 178 q 109 178 126 171 q 143 163 160 154 q 177 144 196 137 q 214 129 235 129 l 235 129 q 254 129 264 133 q 273 137 273 145 l 273 145 q 273 153 267 158 q 260 163 249 167 q 237 170 222 173 q 207 176 190 180 q 173 184 155 190 l 155 190 q 132 197 110 209 q 88 220 71 239 q 53 258 43 285 q 32 312 32 351 l 32 351 q 32 403 56 438 q 80 473 127 491 q 174 509 243 509 l 243 509 q 260 509 277 507 q 294 505 312 501 q 329 497 347 491 q 364 484 382 476 l 382 476 q 419 460 420 432 q 421 403 399 372 l 399 372 q 387 353 375 344 q 362 334 349 334 l 349 334 q 333 334 314 343 q 295 352 274 361 q 253 370 232 370 l 232 370 q 220 370 212 368 q 203 365 199 361 q 195 356 195 350 l 195 350 q 195 339 203 333 q 210 326 223 322 q 235 318 252 315 q 268 312 287 309 l 287 309 q 313 305 341 297 q 368 288 391 272 q 414 256 428 228 q 442 200 442 155 l 442 155 q 442 70 386 26 q 329 -18 219 -18 z"},"t":{"x_min":10,"x_max":419,"ha":429,"o":"m 302 -9 l 302 -9 q 249 -9 210 3 q 171 15 146 40 q 120 65 108 103 q 95 141 95 192 l 95 192 l 95 319 l 70 319 q 36 321 23 341 q 10 361 10 407 l 10 407 q 10 450 26 472 q 42 493 74 493 l 74 493 l 95 493 l 95 580 q 95 603 99 623 q 103 642 122 655 q 141 667 186 667 l 186 667 q 230 667 249 654 q 268 640 272 619 q 276 598 276 576 l 276 576 l 276 496 l 329 498 q 351 498 372 494 q 392 490 406 471 q 419 452 419 406 l 419 406 q 419 364 406 345 q 392 326 372 321 q 351 316 328 316 l 328 316 l 276 317 l 276 201 q 276 190 278 183 q 279 175 282 171 q 285 167 290 165 q 295 163 303 163 l 303 163 q 329 163 350 159 q 370 155 382 138 q 393 121 393 81 l 393 81 q 393 36 379 17 q 365 -2 344 -5 q 323 -9 302 -9 z"},"u":{"x_min":30,"x_max":538,"ha":568,"o":"m 257 -7 l 257 -7 q 209 -7 168 12 q 126 31 95 66 q 64 100 47 146 q 30 192 30 246 l 30 246 l 30 409 q 30 432 34 453 q 38 473 57 487 q 76 500 121 500 l 121 500 q 167 500 186 487 q 204 473 208 452 q 212 431 212 408 l 212 408 l 212 246 q 212 223 221 207 q 229 191 246 183 q 262 174 284 174 q 306 174 322 183 q 338 192 347 208 q 356 224 356 246 l 356 246 l 356 410 q 356 433 360 454 q 364 474 383 487 q 402 500 447 500 l 447 500 q 493 500 512 487 q 530 473 534 452 q 538 431 538 409 l 538 409 l 538 80 q 538 58 534 38 q 530 18 511 5 q 492 -8 447 -8 l 447 -8 q 414 -8 396 0 q 377 7 369 19 l 369 19 q 362 29 360 39 l 360 39 q 353 32 344 25 l 344 25 q 328 12 307 3 q 285 -7 257 -7 z"},"v":{"x_min":9,"x_max":566,"ha":577,"o":"m 288 -14 l 288 -14 q 260 -14 240 -3 q 219 8 208 30 l 208 30 l 31 367 q 9 410 17 439 q 25 468 71 490 l 71 490 q 118 513 145 506 q 172 499 194 449 l 194 449 l 288 235 l 382 449 q 405 501 432 507 q 459 513 505 490 l 505 490 q 552 467 559 438 q 566 408 545 367 l 545 367 l 368 30 q 357 8 337 -3 q 317 -14 288 -14 z"},"w":{"x_min":6,"x_max":742,"ha":737,"o":"m 235 -12 l 235 -12 q 203 -12 186 1 q 168 14 160 31 q 152 48 147 59 l 147 59 l 14 386 q 6 414 7 434 q 7 453 21 467 q 34 481 63 492 l 63 492 q 109 512 139 504 q 168 495 181 455 l 181 455 l 235 306 l 282 435 q 286 445 294 460 q 302 475 320 488 q 337 500 367 500 l 367 500 q 400 500 418 488 q 436 475 445 460 q 454 444 457 434 l 457 434 l 503 306 l 551 439 q 568 483 596 499 q 623 515 668 495 l 668 495 q 710 476 726 450 q 742 423 724 384 l 724 384 l 590 59 q 585 47 577 30 q 569 13 552 1 q 535 -12 504 -12 l 504 -12 q 472 -12 455 -1 q 438 10 430 27 q 421 43 415 59 l 415 59 l 369 182 l 323 59 q 315 38 308 22 q 301 6 285 -3 q 269 -12 235 -12 z"},"x":{"x_min":6,"x_max":532,"ha":538,"o":"m 491 471 l 491 471 q 517 445 525 425 q 532 405 524 386 q 515 367 491 343 l 491 343 l 395 246 l 491 148 q 514 125 523 106 q 532 87 525 67 q 518 47 491 21 l 491 21 q 465 -4 446 -11 q 427 -19 409 -10 q 390 -2 365 21 l 365 21 l 269 118 l 172 21 q 149 -2 130 -10 q 111 -19 92 -11 q 72 -3 46 21 l 46 21 q 21 47 14 67 q 6 87 15 107 q 24 126 46 148 l 46 148 l 142 246 l 46 343 q 23 366 15 385 q 6 404 14 425 q 21 445 46 471 l 46 471 q 71 496 91 504 q 110 511 130 503 q 149 495 172 471 l 172 471 l 269 373 l 365 471 q 402 506 428 508 q 454 509 491 471 z"},"y":{"x_min":6,"x_max":572,"ha":576,"o":"m 189 -214 l 189 -214 q 140 -192 132 -165 q 124 -139 145 -96 l 145 -96 l 223 78 l 32 366 q 6 406 11 433 q 16 459 59 486 l 59 486 q 106 515 132 509 q 157 502 184 461 l 184 461 l 309 272 l 388 448 q 409 495 433 504 q 457 513 507 493 l 507 493 q 555 471 564 446 q 572 421 553 379 l 553 379 l 308 -170 q 288 -217 264 -226 q 239 -236 189 -214 z"},"z":{"x_min":14,"x_max":531,"ha":545,"o":"m 440 -9 l 104 -9 q 67 -9 41 18 q 14 45 14 82 l 14 82 q 14 100 21 117 q 27 133 41 146 l 41 146 l 233 318 l 126 318 q 104 318 83 322 q 62 326 48 345 q 34 364 34 409 l 34 409 q 34 454 48 473 q 62 491 83 495 q 104 499 126 499 l 126 499 l 429 499 q 466 499 493 473 q 519 447 519 410 l 519 410 q 519 391 512 374 q 505 356 493 345 l 493 345 l 306 173 l 441 173 q 464 173 485 169 q 505 165 518 146 q 531 126 531 81 l 531 81 q 531 36 518 17 q 504 -2 484 -5 q 463 -9 440 -9 l 440 -9 z"},"{":{"x_min":5,"x_max":350,"ha":354,"o":"m 273 -173 l 273 -173 q 238 -173 209 -160 q 179 -147 158 -123 q 136 -100 124 -67 q 112 -35 112 3 l 112 3 l 111 189 q 111 201 106 208 q 101 215 93 219 q 85 222 78 223 q 70 224 64 224 l 64 224 l 59 224 q 30 224 18 243 q 5 261 5 300 l 5 300 q 5 338 15 354 q 24 370 37 374 q 50 377 58 377 l 58 377 l 61 377 q 66 377 75 378 q 83 379 92 383 q 100 386 106 393 q 111 400 111 413 l 111 413 l 112 603 q 112 640 124 672 q 136 703 158 726 q 179 749 208 762 q 237 775 272 775 l 272 775 q 292 775 310 772 q 327 768 339 752 q 350 736 350 699 l 350 699 q 350 663 339 647 q 327 631 310 627 q 292 623 273 622 l 273 622 q 270 622 268 620 q 266 618 265 613 q 264 607 264 595 l 264 595 l 264 437 q 264 401 262 378 q 259 354 253 339 q 246 323 235 312 q 223 301 206 292 l 206 292 q 223 282 235 270 q 246 258 253 242 q 259 226 262 204 q 264 182 264 151 l 264 151 l 263 -7 q 263 -11 264 -14 q 265 -18 267 -19 q 269 -21 272 -21 l 272 -21 q 291 -21 309 -24 q 326 -27 338 -43 q 350 -59 350 -97 l 350 -97 q 350 -135 338 -151 q 326 -167 309 -170 q 291 -173 273 -173 z"},"|":{"x_min":28,"x_max":174,"ha":202,"o":"m 100 -225 l 100 -225 q 64 -225 49 -211 q 34 -198 31 -177 q 28 -156 28 -134 l 28 -134 l 28 639 q 28 661 31 682 q 34 702 50 715 q 65 728 101 728 l 101 728 q 138 728 153 715 q 168 701 171 681 q 174 660 174 638 l 174 638 l 174 -136 q 174 -157 171 -177 q 168 -198 153 -211 q 137 -225 100 -225 z"},"}":{"x_min":5,"x_max":350,"ha":354,"o":"m 82 -173 l 82 -173 q 65 -173 47 -170 q 29 -167 17 -151 q 5 -135 5 -97 l 5 -97 q 5 -59 17 -43 q 29 -27 47 -24 q 65 -21 83 -21 l 83 -21 q 86 -21 88 -19 q 90 -18 91 -14 q 92 -11 92 -7 l 92 -7 l 92 151 q 92 182 95 204 q 97 226 103 242 q 109 258 121 270 q 132 282 149 292 l 149 292 q 132 301 121 312 q 109 323 103 339 q 97 354 95 378 q 92 401 92 437 l 92 437 l 92 595 q 92 607 91 613 q 89 618 87 620 q 85 622 82 622 l 82 622 q 64 623 46 627 q 28 631 17 647 q 5 663 5 699 l 5 699 q 5 736 17 752 q 28 768 46 772 q 64 775 83 775 l 83 775 q 118 775 147 762 q 176 749 198 726 q 220 703 232 672 q 244 640 244 603 l 244 603 l 244 413 q 244 400 250 393 q 255 386 264 383 q 272 379 281 378 q 289 377 294 377 l 294 377 l 297 377 q 306 377 319 374 q 331 370 341 354 q 350 338 350 300 l 350 300 q 350 261 338 243 q 325 224 296 224 l 296 224 l 291 224 q 285 224 278 223 q 270 222 262 219 q 254 215 249 208 q 244 200 244 188 l 244 188 l 244 3 q 244 -35 232 -67 q 219 -100 198 -123 q 176 -147 147 -160 q 117 -173 82 -173 z"},"~":{"x_min":22,"x_max":531,"ha":556,"o":"m 212 361 l 212 361 q 239 361 258 355 q 277 349 291 341 q 305 333 315 325 q 325 316 333 310 q 341 304 349 304 l 349 304 q 363 304 371 313 q 379 321 386 333 q 392 344 403 353 q 414 361 434 361 l 434 361 q 446 361 458 357 q 470 352 483 342 l 483 342 q 508 326 520 311 q 531 295 531 280 l 531 280 q 531 257 514 232 q 497 207 469 186 q 441 165 409 152 q 376 139 346 139 l 346 139 q 319 139 300 145 q 280 151 266 160 q 252 168 242 177 q 231 185 223 191 q 214 197 206 197 l 206 197 q 192 197 185 188 q 177 179 171 168 q 164 156 154 147 q 143 138 122 138 l 122 138 q 114 138 105 141 q 96 143 87 149 q 77 155 67 163 l 67 163 q 30 194 26 214 q 22 234 44 267 l 44 267 q 48 272 60 287 q 71 302 92 319 q 112 336 142 349 q 172 361 212 361 z"}}}
